<svg width="261" height="234" viewBox="0 0 261 234" fill="none" xmlns="http://www.w3.org/2000/svg">
<path d="M74.3581 28.7274C95.7963 12.1175 123.222 3.04006 152.386 5.35771C213.997 10.3793 259.963 64.4578 254.942 126.069C249.92 187.68 195.842 233.646 134.231 228.625C91.161 225.148 55.6237 197.723 39.9796 160.447" stroke="#FF6831" stroke-width="10" stroke-miterlimit="10" stroke-linecap="round" stroke-linejoin="round"/>
<path d="M160.69 111.369H165.69V106.369V53.2559C165.69 51.7683 166.928 50.5304 168.416 50.5304C169.951 50.5304 171.011 51.7617 170.953 53.0289L170.948 53.1424V53.2559V174.933C170.948 176.42 169.71 177.658 168.223 177.658C166.735 177.658 165.497 176.42 165.497 174.933V121.82V116.82H160.497H136.355C135.922 116.82 135.333 116.684 134.728 116.382L134.627 116.331L134.523 116.285C133.54 115.848 133.096 115.319 132.942 114.896L132.921 114.837L132.898 114.778L124.786 94.1124L119.459 80.5409L115.336 94.5254L96.6013 158.068L96.6004 158.071C96.2225 159.356 95.1842 160.083 94.058 160.083H94.0569H94.0557H94.0546H94.0535H94.0524H94.0513H94.0502H94.0491H94.048H94.0469H94.0458H94.0447H94.0437H94.0426H94.0415H94.0405H94.0394H94.0383H94.0373H94.0362H94.0352H94.0342H94.0331H94.0321H94.0311H94.0301H94.029H94.028H94.027H94.026H94.025H94.024H94.023H94.022H94.021H94.0201H94.0191H94.0181H94.0172H94.0162H94.0152H94.0143H94.0133H94.0124H94.0114H94.0105H94.0096H94.0086H94.0077H94.0068H94.0059H94.0049H94.004H94.0031H94.0022H94.0013H94.0004H93.9995H93.9986H93.9977H93.9969H93.996H93.9951H93.9943H93.9934H93.9925H93.9917H93.9908H93.99H93.9891H93.9883H93.9874H93.9866H93.9858H93.985H93.9841H93.9833H93.9825H93.9817H93.9809H93.9801H93.9793H93.9785H93.9777H93.9769H93.9761H93.9753H93.9746H93.9738H93.973H93.9722H93.9715H93.9707H93.97H93.9692H93.9685H93.9677H93.967H93.9662H93.9655H93.9648H93.964H93.9633H93.9626H93.9619H93.9612H93.9605H93.9598H93.9591H93.9584H93.9577H93.957H93.9563H93.9556H93.9549H93.9542H93.9536H93.9529H93.9522H93.9515H93.9509H93.9502H93.9496H93.9489H93.9483H93.9476H93.947H93.9463H93.9457H93.9451H93.9445H93.9438H93.9432H93.9426H93.942H93.9414H93.9408H93.9401H93.9395H93.9389H93.9383H93.9378H93.9372H93.9366H93.936H93.9354H93.9348H93.9343H93.9337H93.9331H93.9326H93.932H93.9314H93.9309H93.9303H93.9298H93.9292H93.9287H93.9282H93.9276H93.9271H93.9266H93.926H93.9255H93.925H93.9245H93.924H93.9234H93.9229H93.9224H93.9219H93.9214H93.9209H93.9204H93.9199H93.9194H93.919H93.9185H93.918H93.9175H93.917H93.9166H93.9161H93.9156H93.9152H93.9147H93.9143H93.9138H93.9134H93.9129H93.9125H93.912H93.9116H93.9111H93.9107H93.9103H93.9098H93.9094H93.909H93.9086H93.9081H93.9077H93.9073H93.9069H93.9065H93.9061H93.9057H93.9053H93.9049H93.9045H93.9041H93.9037H93.9033H93.9029H93.9026H93.9022H93.9018H93.9014H93.9011H93.9007H93.9003H93.9H93.8996H93.8992H93.8989H93.8985H93.8982H93.8978H93.8975H93.8971H93.8968H93.8965H93.8961H93.8958H93.8954H93.8951H93.8948H93.8945H93.8941H93.8938H93.8935H93.8932H93.8929H93.8926H93.8923H93.8919H93.8916H93.8913H93.891H93.8907H93.8904H93.8902H93.8899H93.8896H93.8893H93.889H93.8887H93.8884H93.8882H93.8879H93.8876H93.8873H93.8871H93.8868H93.8865H93.8863H93.886H93.8858H93.8855H93.8853H93.885H93.8848H93.8845H93.8843H93.884H93.8838H93.8835H93.8833H93.8831H93.8828H93.8826H93.8824H93.8821H93.8819H93.8817H93.8815H93.8812H93.881H93.8808H93.8806H93.8804H93.8802H93.88H93.8798H93.8796H93.8794H93.8792H93.879H93.8788H93.8786H93.8784H93.8782H93.878H93.8778H93.8776H93.8774H93.8773H93.8771H93.8769H93.8767H93.8765H93.8764H93.8762H93.876H93.8759H93.8757H93.8755H93.8754H93.8752H93.875H93.8749H93.8747H93.8746H93.8744H93.8743H93.8741H93.874H93.8738H93.8737H93.8735H93.8734H93.8733H93.8731H93.873H93.8728H93.8727H93.8726H93.8724H93.8723H93.8722H93.8721H93.8719H93.8718H93.8717H93.8716H93.8714H93.8713H93.8712H93.8711H93.871H93.8709H93.8708H93.8706H93.8705H93.8704H93.8703H93.8702H93.8701H93.87H93.8699H93.8698H93.8697H93.8696H93.8695H93.8694H93.8693H93.8692H93.8692H93.8691H93.869H93.8689H93.8688H93.8687H93.8686H93.8686H93.8685H93.8684H93.8683H93.8682H93.8682H93.8681H93.868H93.8679H93.8679H93.8678H93.8677H93.8677H93.8676H93.8675H93.8675H93.8674H93.8673H93.8673H93.8672H93.8672H93.867H93.8669H93.8668H93.8667H93.8666H93.8665H93.8664H93.8663H93.8662H93.8662H93.8661H93.866H93.8659H93.8659H93.8658H93.8657H93.8657H93.8656H93.8655H93.8655H93.8654H93.8653H93.8653H93.8652H93.8651H93.8651H93.865H93.8649H93.8649C92.7981 160.083 91.6203 159.215 91.298 158.183L91.2863 158.146L91.2739 158.108L78.7199 120.06L77.5871 116.627H73.9717H38.8206H35.2659L34.0982 119.984L24.8276 146.637L24.8169 146.668L24.8066 146.699C24.3601 148.038 22.8151 148.876 21.2812 148.365C19.9487 147.921 19.1125 146.389 19.6071 144.863L27.1259 123.271L29.4395 116.627H22.4039H7.7255C6.2379 116.627 5 115.389 5 113.901C5 112.414 6.2379 111.176 7.7255 111.176H27.8118H31.3674L32.5347 107.817L54.5281 44.5379C54.9896 43.3572 56.0167 42.6726 57.0314 42.6157C58.4713 42.7614 59.4878 43.7182 59.7355 44.511L59.7458 44.5438L59.7565 44.5764L81.9673 112.368L82.082 112.718L82.2321 113.018C82.2337 113.022 82.2355 113.026 82.2378 113.032C82.2532 113.069 82.2768 113.13 82.3095 113.22C82.3776 113.407 82.451 113.626 82.5498 113.922C82.5515 113.927 82.5531 113.932 82.5548 113.937L88.7256 132.836L93.7085 148.096L98.2723 132.705L116.427 71.4804L116.43 71.4698C116.764 70.3346 117.764 69.5263 119.073 69.4493C120.251 69.38 121.27 70.0807 121.63 71.042L121.646 71.0844L121.663 71.1266L136.341 108.209L137.592 111.369H140.99H160.69ZM39.6985 104.149L37.3917 110.789H44.4216H69.1433H76.0343L73.8966 104.238L61.922 67.5421L57.3168 53.4293L52.4456 67.4526L39.6985 104.149Z" fill="black" stroke="#FF6831" stroke-width="10"/>
<path d="M187.73 169.353C186.242 169.353 185.004 168.115 185.004 166.628V64.2646C185.004 62.777 186.242 61.5391 187.73 61.5391C189.217 61.5391 190.455 62.777 190.455 64.2646V166.628C190.455 168.115 189.217 169.353 187.73 169.353Z" fill="black" stroke="#FF6831" stroke-width="10"/>
<path d="M209.769 106.755V111.755H214.769H217.666C219.154 111.755 220.391 112.993 220.391 114.481C220.391 115.968 219.154 117.206 217.666 117.206H214.769H209.769V122.206V152.142C209.769 153.63 208.531 154.868 207.043 154.868C205.556 154.868 204.318 153.63 204.318 152.142V76.8187C204.318 75.3311 205.556 74.0932 207.043 74.0932C208.531 74.0932 209.769 75.3311 209.769 76.8187V106.755Z" fill="black" stroke="#FF6831" stroke-width="10"/>
</svg>
